<mxfile host="Electron" agent="Mozilla/5.0 (X11; Linux x86_64) AppleWebKit/537.36 (KHTML, like Gecko) draw.io/28.0.6 Chrome/138.0.7204.100 Electron/37.2.3 Safari/537.36" version="28.0.6">
  <diagram name="Page-1" id="U4APU1ABSsuLH175wqLi">
    <mxGraphModel dx="679" dy="458" grid="1" gridSize="10" guides="1" tooltips="1" connect="1" arrows="1" fold="1" page="1" pageScale="1" pageWidth="850" pageHeight="1100" math="0" shadow="0">
      <root>
        <mxCell id="0" />
        <mxCell id="1" parent="0" />
        <mxCell id="sjCsa6Moyp3Y0YdYBl9X-28" style="edgeStyle=orthogonalEdgeStyle;rounded=0;orthogonalLoop=1;jettySize=auto;html=1;dashed=1;startArrow=classic;startFill=1;shadow=0;labelBackgroundColor=none;fontColor=default;" parent="1" source="sjCsa6Moyp3Y0YdYBl9X-19" target="sjCsa6Moyp3Y0YdYBl9X-8" edge="1">
          <mxGeometry relative="1" as="geometry">
            <mxPoint x="659" y="274" as="sourcePoint" />
            <mxPoint x="480" y="350" as="targetPoint" />
            <Array as="points">
              <mxPoint x="630" y="380" />
              <mxPoint x="630" y="380" />
            </Array>
          </mxGeometry>
        </mxCell>
        <mxCell id="sjCsa6Moyp3Y0YdYBl9X-51" style="edgeStyle=orthogonalEdgeStyle;rounded=0;orthogonalLoop=1;jettySize=auto;html=1;shadow=0;labelBackgroundColor=none;fontColor=default;" parent="1" source="sjCsa6Moyp3Y0YdYBl9X-1" target="sjCsa6Moyp3Y0YdYBl9X-35" edge="1">
          <mxGeometry relative="1" as="geometry">
            <Array as="points">
              <mxPoint x="300" y="140" />
            </Array>
          </mxGeometry>
        </mxCell>
        <mxCell id="sjCsa6Moyp3Y0YdYBl9X-1" value="Client" style="rounded=0;whiteSpace=wrap;html=1;shadow=0;labelBackgroundColor=none;" parent="1" vertex="1">
          <mxGeometry x="240" y="160" width="120" height="40" as="geometry" />
        </mxCell>
        <mxCell id="sjCsa6Moyp3Y0YdYBl9X-6" value="" style="edgeStyle=orthogonalEdgeStyle;rounded=0;orthogonalLoop=1;jettySize=auto;html=1;startArrow=classic;startFill=1;shadow=0;labelBackgroundColor=none;fontColor=default;" parent="1" source="sjCsa6Moyp3Y0YdYBl9X-5" target="sjCsa6Moyp3Y0YdYBl9X-1" edge="1">
          <mxGeometry relative="1" as="geometry">
            <Array as="points">
              <mxPoint x="300" y="210" />
              <mxPoint x="300" y="210" />
            </Array>
          </mxGeometry>
        </mxCell>
        <mxCell id="sjCsa6Moyp3Y0YdYBl9X-5" value="Server&lt;div&gt;(Kubernetes)&lt;/div&gt;" style="swimlane;whiteSpace=wrap;html=1;startSize=40;shadow=0;labelBackgroundColor=none;" parent="1" vertex="1">
          <mxGeometry x="240" y="230" width="360" height="340" as="geometry" />
        </mxCell>
        <mxCell id="sjCsa6Moyp3Y0YdYBl9X-7" value="Web server&lt;div&gt;(Apache/NGINX)&lt;/div&gt;" style="rounded=0;whiteSpace=wrap;html=1;shadow=0;labelBackgroundColor=none;" parent="sjCsa6Moyp3Y0YdYBl9X-5" vertex="1">
          <mxGeometry x="120" y="60" width="120" height="40" as="geometry" />
        </mxCell>
        <mxCell id="sjCsa6Moyp3Y0YdYBl9X-23" style="edgeStyle=orthogonalEdgeStyle;rounded=0;orthogonalLoop=1;jettySize=auto;html=1;startArrow=classic;startFill=1;shadow=0;labelBackgroundColor=none;fontColor=default;" parent="sjCsa6Moyp3Y0YdYBl9X-5" source="sjCsa6Moyp3Y0YdYBl9X-8" target="sjCsa6Moyp3Y0YdYBl9X-7" edge="1">
          <mxGeometry relative="1" as="geometry" />
        </mxCell>
        <mxCell id="sjCsa6Moyp3Y0YdYBl9X-8" value="&lt;div&gt;Travelmate&lt;/div&gt;(Node.js)" style="rounded=0;whiteSpace=wrap;html=1;shadow=0;labelBackgroundColor=none;" parent="sjCsa6Moyp3Y0YdYBl9X-5" vertex="1">
          <mxGeometry x="120" y="120" width="120" height="60" as="geometry" />
        </mxCell>
        <mxCell id="sjCsa6Moyp3Y0YdYBl9X-15" style="edgeStyle=orthogonalEdgeStyle;rounded=0;orthogonalLoop=1;jettySize=auto;html=1;startArrow=classic;startFill=1;shadow=0;labelBackgroundColor=none;fontColor=default;" parent="sjCsa6Moyp3Y0YdYBl9X-5" source="sjCsa6Moyp3Y0YdYBl9X-9" target="sjCsa6Moyp3Y0YdYBl9X-8" edge="1">
          <mxGeometry relative="1" as="geometry">
            <Array as="points">
              <mxPoint x="210" y="240" />
            </Array>
          </mxGeometry>
        </mxCell>
        <mxCell id="sjCsa6Moyp3Y0YdYBl9X-16" style="edgeStyle=orthogonalEdgeStyle;rounded=0;orthogonalLoop=1;jettySize=auto;html=1;startArrow=classic;startFill=1;shadow=0;labelBackgroundColor=none;fontColor=default;" parent="sjCsa6Moyp3Y0YdYBl9X-5" source="sjCsa6Moyp3Y0YdYBl9X-10" target="sjCsa6Moyp3Y0YdYBl9X-8" edge="1">
          <mxGeometry relative="1" as="geometry">
            <Array as="points">
              <mxPoint x="190" y="300" />
            </Array>
          </mxGeometry>
        </mxCell>
        <mxCell id="sjCsa6Moyp3Y0YdYBl9X-9" value="&lt;div&gt;LLM&lt;/div&gt;(Ollama)" style="rounded=0;whiteSpace=wrap;html=1;shadow=0;labelBackgroundColor=none;" parent="sjCsa6Moyp3Y0YdYBl9X-5" vertex="1">
          <mxGeometry x="220" y="220" width="120" height="40" as="geometry" />
        </mxCell>
        <mxCell id="sjCsa6Moyp3Y0YdYBl9X-10" value="&lt;div&gt;TTS&lt;/div&gt;(Piper)" style="rounded=0;whiteSpace=wrap;html=1;shadow=0;labelBackgroundColor=none;" parent="sjCsa6Moyp3Y0YdYBl9X-5" vertex="1">
          <mxGeometry x="220" y="280" width="120" height="40" as="geometry" />
        </mxCell>
        <mxCell id="sjCsa6Moyp3Y0YdYBl9X-14" style="edgeStyle=orthogonalEdgeStyle;rounded=0;orthogonalLoop=1;jettySize=auto;html=1;startArrow=classic;startFill=1;shadow=0;labelBackgroundColor=none;fontColor=default;" parent="sjCsa6Moyp3Y0YdYBl9X-5" source="sjCsa6Moyp3Y0YdYBl9X-11" target="sjCsa6Moyp3Y0YdYBl9X-8" edge="1">
          <mxGeometry relative="1" as="geometry">
            <Array as="points">
              <mxPoint x="150" y="240" />
            </Array>
          </mxGeometry>
        </mxCell>
        <mxCell id="sjCsa6Moyp3Y0YdYBl9X-17" style="edgeStyle=orthogonalEdgeStyle;rounded=0;orthogonalLoop=1;jettySize=auto;html=1;startArrow=classic;startFill=1;shadow=0;labelBackgroundColor=none;fontColor=default;" parent="sjCsa6Moyp3Y0YdYBl9X-5" source="sjCsa6Moyp3Y0YdYBl9X-12" target="sjCsa6Moyp3Y0YdYBl9X-8" edge="1">
          <mxGeometry relative="1" as="geometry">
            <mxPoint x="200" y="170" as="targetPoint" />
            <Array as="points">
              <mxPoint x="170" y="300" />
            </Array>
          </mxGeometry>
        </mxCell>
        <mxCell id="sjCsa6Moyp3Y0YdYBl9X-11" value="Premium&lt;div&gt;(Postgres)&lt;/div&gt;" style="rounded=0;whiteSpace=wrap;html=1;shadow=0;labelBackgroundColor=none;" parent="sjCsa6Moyp3Y0YdYBl9X-5" vertex="1">
          <mxGeometry x="20" y="220" width="120" height="40" as="geometry" />
        </mxCell>
        <mxCell id="sjCsa6Moyp3Y0YdYBl9X-12" value="Cache&lt;div&gt;(Redis)&lt;/div&gt;" style="rounded=0;whiteSpace=wrap;html=1;shadow=0;labelBackgroundColor=none;" parent="sjCsa6Moyp3Y0YdYBl9X-5" vertex="1">
          <mxGeometry x="20" y="280" width="120" height="40" as="geometry" />
        </mxCell>
        <mxCell id="sjCsa6Moyp3Y0YdYBl9X-31" value="" style="endArrow=classic;html=1;rounded=0;exitX=0.5;exitY=0;exitDx=0;exitDy=0;startArrow=classic;startFill=1;shadow=0;labelBackgroundColor=none;fontColor=default;" parent="sjCsa6Moyp3Y0YdYBl9X-5" source="sjCsa6Moyp3Y0YdYBl9X-7" edge="1">
          <mxGeometry width="50" height="50" relative="1" as="geometry">
            <mxPoint x="200" y="170" as="sourcePoint" />
            <mxPoint x="180" y="40" as="targetPoint" />
          </mxGeometry>
        </mxCell>
        <mxCell id="COMTIipNydMqQHmLZkqY-2" style="edgeStyle=orthogonalEdgeStyle;rounded=0;orthogonalLoop=1;jettySize=auto;html=1;startArrow=classic;startFill=1;" edge="1" parent="sjCsa6Moyp3Y0YdYBl9X-5" source="COMTIipNydMqQHmLZkqY-1" target="sjCsa6Moyp3Y0YdYBl9X-8">
          <mxGeometry relative="1" as="geometry">
            <mxPoint x="260" y="110" as="targetPoint" />
            <Array as="points">
              <mxPoint x="370" y="60" />
              <mxPoint x="370" y="140" />
            </Array>
          </mxGeometry>
        </mxCell>
        <mxCell id="sjCsa6Moyp3Y0YdYBl9X-26" style="edgeStyle=orthogonalEdgeStyle;rounded=0;orthogonalLoop=1;jettySize=auto;html=1;startArrow=classic;startFill=1;shadow=0;labelBackgroundColor=none;fontColor=default;" parent="1" source="sjCsa6Moyp3Y0YdYBl9X-21" target="sjCsa6Moyp3Y0YdYBl9X-8" edge="1">
          <mxGeometry relative="1" as="geometry">
            <Array as="points">
              <mxPoint x="610" y="460" />
              <mxPoint x="610" y="390" />
            </Array>
          </mxGeometry>
        </mxCell>
        <mxCell id="sjCsa6Moyp3Y0YdYBl9X-19" value="&lt;div&gt;LLM&lt;/div&gt;(OpenAI)" style="ellipse;shape=cloud;whiteSpace=wrap;html=1;shadow=0;labelBackgroundColor=none;" parent="1" vertex="1">
          <mxGeometry x="640" y="330" width="120" height="80" as="geometry" />
        </mxCell>
        <mxCell id="sjCsa6Moyp3Y0YdYBl9X-21" value="NearbySearch&lt;div&gt;(Google)&lt;/div&gt;" style="ellipse;shape=cloud;whiteSpace=wrap;html=1;shadow=0;labelBackgroundColor=none;" parent="1" vertex="1">
          <mxGeometry x="640" y="410" width="120" height="80" as="geometry" />
        </mxCell>
        <mxCell id="sjCsa6Moyp3Y0YdYBl9X-27" style="edgeStyle=orthogonalEdgeStyle;rounded=0;orthogonalLoop=1;jettySize=auto;html=1;dashed=1;startArrow=classic;startFill=1;shadow=0;labelBackgroundColor=none;fontColor=default;" parent="1" source="sjCsa6Moyp3Y0YdYBl9X-22" target="sjCsa6Moyp3Y0YdYBl9X-8" edge="1">
          <mxGeometry relative="1" as="geometry">
            <Array as="points">
              <mxPoint x="590" y="530" />
              <mxPoint x="590" y="400" />
            </Array>
          </mxGeometry>
        </mxCell>
        <mxCell id="sjCsa6Moyp3Y0YdYBl9X-22" value="NearbySearch&lt;div&gt;(Tripadvisor&lt;span style=&quot;background-color: transparent; color: light-dark(rgb(0, 0, 0), rgb(255, 255, 255));&quot;&gt;)&lt;/span&gt;&lt;/div&gt;" style="ellipse;shape=cloud;whiteSpace=wrap;html=1;shadow=0;labelBackgroundColor=none;" parent="1" vertex="1">
          <mxGeometry x="640" y="490" width="120" height="80" as="geometry" />
        </mxCell>
        <mxCell id="sjCsa6Moyp3Y0YdYBl9X-35" value="&lt;div&gt;Geolocation&lt;/div&gt;(GPS)" style="verticalAlign=bottom;verticalLabelPosition=top;labelPosition=center;align=center;html=1;outlineConnect=0;gradientDirection=north;strokeWidth=2;shape=mxgraph.networks.satellite;shadow=0;labelBackgroundColor=none;" parent="1" vertex="1">
          <mxGeometry x="400" y="120" width="40" height="40" as="geometry" />
        </mxCell>
        <mxCell id="sjCsa6Moyp3Y0YdYBl9X-40" style="edgeStyle=orthogonalEdgeStyle;rounded=0;orthogonalLoop=1;jettySize=auto;html=1;startArrow=classic;startFill=1;shadow=0;labelBackgroundColor=none;fontColor=default;" parent="1" source="sjCsa6Moyp3Y0YdYBl9X-39" target="sjCsa6Moyp3Y0YdYBl9X-5" edge="1">
          <mxGeometry relative="1" as="geometry">
            <Array as="points">
              <mxPoint x="540" y="220" />
              <mxPoint x="540" y="220" />
            </Array>
          </mxGeometry>
        </mxCell>
        <mxCell id="sjCsa6Moyp3Y0YdYBl9X-52" style="edgeStyle=orthogonalEdgeStyle;rounded=0;orthogonalLoop=1;jettySize=auto;html=1;shadow=0;labelBackgroundColor=none;fontColor=default;" parent="1" source="sjCsa6Moyp3Y0YdYBl9X-39" target="sjCsa6Moyp3Y0YdYBl9X-35" edge="1">
          <mxGeometry relative="1" as="geometry">
            <Array as="points">
              <mxPoint x="540" y="140" />
            </Array>
          </mxGeometry>
        </mxCell>
        <mxCell id="sjCsa6Moyp3Y0YdYBl9X-39" value="Client" style="rounded=0;whiteSpace=wrap;html=1;shadow=0;labelBackgroundColor=none;" parent="1" vertex="1">
          <mxGeometry x="480" y="160" width="120" height="40" as="geometry" />
        </mxCell>
        <mxCell id="sjCsa6Moyp3Y0YdYBl9X-42" value="&lt;font style=&quot;font-size: 38px;&quot;&gt;...&lt;/font&gt;" style="text;html=1;align=center;verticalAlign=middle;whiteSpace=wrap;rounded=0;shadow=0;labelBackgroundColor=none;" parent="1" vertex="1">
          <mxGeometry x="390" y="165" width="60" height="30" as="geometry" />
        </mxCell>
        <mxCell id="COMTIipNydMqQHmLZkqY-1" value="&lt;div&gt;Fallback&lt;/div&gt;&lt;div&gt;Location&lt;/div&gt;&lt;div&gt;(IPAPI)&lt;/div&gt;" style="ellipse;shape=cloud;whiteSpace=wrap;html=1;shadow=0;labelBackgroundColor=none;" vertex="1" parent="1">
          <mxGeometry x="640" y="250" width="120" height="80" as="geometry" />
        </mxCell>
      </root>
    </mxGraphModel>
  </diagram>
</mxfile>
